<svg xmlns="http://www.w3.org/2000/svg" viewBox="0 -0.5 13 17" shape-rendering="crispEdges">
<metadata>Made with Pixels to Svg https://codepen.io/shshaw/pen/XbxvNj</metadata>
<path stroke="#522301" d="M3 0h1M2 1h1M1 2h2M2 4h1M1 7h1M2 9h1M4 9h1" />
<path stroke="#512201" d="M4 0h1M3 1h1M1 3h2M1 4h1M1 5h1M1 6h1M1 8h2M0 9h1M3 9h1M0 10h2M0 11h3M1 12h1" />
<path stroke="#805130" d="M5 0h1M11 2h1" />
<path stroke="#815231" d="M6 0h2M3 2h1" />
<path stroke="#8d5e3d" d="M8 0h1M6 1h1M11 1h1" />
<path stroke="#8c5d3c" d="M9 0h1M12 2h1" />
<path stroke="#8d5e3c" d="M10 0h1M5 1h1M7 1h1M9 1h2" />
<path stroke="#7f5231" d="M4 1h1" />
<path stroke="#8c5e3c" d="M8 1h1M4 2h1" />
<path stroke="#fecbcb" d="M5 2h3M9 2h1M5 3h1M4 5h1M9 5h1M4 6h2M12 6h1M7 7h1" />
<path stroke="#ffcbcb" d="M8 2h1M10 2h1M10 7h1" />
<path stroke="#e9b6b6" d="M3 3h1M3 5h1M4 7h1M10 13h1" />
<path stroke="#ffcccc" d="M4 3h1M8 3h3M4 4h1M7 4h4M12 4h1M6 5h2M11 5h2M6 6h1M11 6h1M6 7h1M8 7h2M3 13h1" />
<path stroke="#fecccc" d="M6 3h2M11 3h2M6 4h1M8 5h1M10 5h1" />
<path stroke="#e9b5b5" d="M3 4h1M3 6h1M3 7h1" />
<path stroke="#000000" d="M5 4h1M11 4h1M4 10h1M6 10h1M3 11h1M7 11h1M4 12h1M10 12h1" />
<path stroke="#a97777" d="M2 5h1" />
<path stroke="#fbc8c8" d="M5 5h1M12 7h1" />
<path stroke="#aa7676" d="M2 6h1M2 7h1" />
<path stroke="#ce9a9a" d="M7 6h1" />
<path stroke="#ce9b9b" d="M8 6h2" />
<path stroke="#fcc8c8" d="M10 6h1" />
<path stroke="#b55916" d="M5 7h1M5 8h1M6 9h1M7 10h1" />
<path stroke="#e47726" d="M11 7h1M7 8h4M8 9h3" />
<path stroke="#aa7777" d="M3 8h2M5 9h1" />
<path stroke="#d06d25" d="M6 8h1M11 8h1M7 9h1M8 10h2M8 11h1" />
<path stroke="#4d3ca6" d="M1 9h1M2 10h1" />
<path stroke="#2a2a2a" d="M5 10h1M4 11h2M7 12h1M5 13h4M5 14h1M8 14h1" />
<path stroke="#2b2b2b" d="M6 11h1M5 12h2M8 12h1M6 14h2" />
<path stroke="#323232" d="M9 11h1M3 12h1M4 16h2M8 16h2" />
<path stroke="#333333" d="M9 12h1M9 13h1M9 14h1" />
<path stroke="#232323" d="M4 13h1M4 14h1" />
<path stroke="#003298" d="M4 15h2M9 15h1" />
<path stroke="#003399" d="M6 15h3" />
</svg>