<svg xmlns="http://www.w3.org/2000/svg" viewBox="0 -0.5 20 20" shape-rendering="crispEdges">
<metadata>Made with Pixels to Svg https://codepen.io/shshaw/pen/XbxvNj</metadata>
<path stroke="#666289" d="M0 0h20M0 1h20M0 2h20M0 3h6M14 3h6M0 4h5M15 4h5M0 5h4M16 5h4M0 6h4M16 6h4M0 7h4M16 7h4M0 8h4M16 8h4M0 9h4M16 9h4M0 10h4M16 10h4M0 11h4M15 11h5M0 12h3M14 12h6M0 13h3M6 13h1M13 13h7M0 14h3M13 14h7M0 15h4M5 15h1M14 15h6M0 16h6M14 16h6M0 17h7M13 17h7M0 18h7M13 18h7M0 19h7M9 19h2M13 19h7" />
<path stroke="#522301" d="M6 3h1M5 4h1M4 5h2M5 7h1M4 10h1M5 12h1M7 12h1" />
<path stroke="#512201" d="M7 3h1M6 4h1M4 6h2M4 7h1M4 8h1M4 9h1M4 11h2M3 12h1M6 12h1M3 13h2M3 14h3M4 15h1" />
<path stroke="#805130" d="M8 3h1M14 5h1" />
<path stroke="#815231" d="M9 3h2M6 5h1" />
<path stroke="#8d5e3d" d="M11 3h1M9 4h1M14 4h1" />
<path stroke="#8c5d3c" d="M12 3h1M15 5h1" />
<path stroke="#8d5e3c" d="M13 3h1M8 4h1M10 4h1M12 4h2" />
<path stroke="#7f5231" d="M7 4h1" />
<path stroke="#8c5e3c" d="M11 4h1M7 5h1" />
<path stroke="#fecbcb" d="M8 5h3M12 5h1M8 6h1M7 8h1M12 8h1M7 9h2M15 9h1M10 10h1" />
<path stroke="#ffcbcb" d="M11 5h1M13 5h1M13 10h1" />
<path stroke="#e9b6b6" d="M6 6h1M6 8h1M7 10h1M13 16h1" />
<path stroke="#ffcccc" d="M7 6h1M11 6h3M7 7h1M10 7h4M15 7h1M9 8h2M14 8h2M9 9h1M14 9h1M9 10h1M11 10h2M6 16h1" />
<path stroke="#fecccc" d="M9 6h2M14 6h2M9 7h1M11 8h1M13 8h1" />
<path stroke="#e9b5b5" d="M6 7h1M6 9h1M6 10h1" />
<path stroke="#000000" d="M8 7h1M14 7h1M7 13h1M9 13h1M6 14h1M10 14h1M7 15h1M13 15h1" />
<path stroke="#a97777" d="M5 8h1" />
<path stroke="#fbc8c8" d="M8 8h1M15 10h1" />
<path stroke="#aa7676" d="M5 9h1M5 10h1" />
<path stroke="#ce9a9a" d="M10 9h1" />
<path stroke="#ce9b9b" d="M11 9h2" />
<path stroke="#fcc8c8" d="M13 9h1" />
<path stroke="#b55916" d="M8 10h1M8 11h1M9 12h1M10 13h1" />
<path stroke="#e47726" d="M14 10h1M10 11h4M11 12h3" />
<path stroke="#aa7777" d="M6 11h2M8 12h1" />
<path stroke="#d06d25" d="M9 11h1M14 11h1M10 12h1M11 13h2M11 14h1" />
<path stroke="#4d3ca6" d="M4 12h1M5 13h1" />
<path stroke="#2a2a2a" d="M8 13h1M7 14h2M10 15h1M8 16h4M8 17h1M11 17h1" />
<path stroke="#2b2b2b" d="M9 14h1M8 15h2M11 15h1M9 17h2" />
<path stroke="#323232" d="M12 14h1M6 15h1M7 19h2M11 19h2" />
<path stroke="#333333" d="M12 15h1M12 16h1M12 17h1" />
<path stroke="#232323" d="M7 16h1M7 17h1" />
<path stroke="#003298" d="M7 18h2M12 18h1" />
<path stroke="#003399" d="M9 18h3" />
</svg>